<svg width="156" height="90" viewBox="0 0 156 90" fill="none" xmlns="http://www.w3.org/2000/svg">
<path d="M67.0625 77.1875C67.0625 78.9375 66.7292 80.6042 66.0625 82.1875C65.3958 83.7292 64.4792 85.0833 63.3125 86.25C62.1458 87.4167 60.7708 88.3333 59.1875 89C57.6458 89.6667 56 90 54.25 90H13.3125C11.5625 90 9.89583 89.6667 8.3125 89C6.77083 88.3333 5.41667 87.4167 4.25 86.25C3.08333 85.0833 2.16667 83.7292 1.5 82.1875C0.833333 80.6042 0.5 78.9375 0.5 77.1875V65.6875H13.3125V77.1875H54.25V51.625H13.3125C11.5625 51.625 9.89583 51.2917 8.3125 50.625C6.77083 49.9167 5.41667 49 4.25 47.875C3.08333 46.7083 2.16667 45.3542 1.5 43.8125C0.833333 42.2292 0.5 40.5625 0.5 38.8125V13.1875C0.5 11.4375 0.833333 9.79167 1.5 8.25C2.16667 6.66667 3.08333 5.3125 4.25 4.1875C5.41667 3.02083 6.77083 2.10417 8.3125 1.4375C9.89583 0.729167 11.5625 0.375 13.3125 0.375H54.25C56 0.375 57.6458 0.729167 59.1875 1.4375C60.7708 2.10417 62.1458 3.02083 63.3125 4.1875C64.4792 5.3125 65.3958 6.66667 66.0625 8.25C66.7292 9.79167 67.0625 11.4375 67.0625 13.1875V77.1875ZM54.25 38.8125V13.1875H13.3125V38.8125H54.25ZM110.625 0.375V90H97.8125V13.1875H82.4375V0.375H110.625ZM155.5 0.375V90H142.688V13.1875H127.312V0.375H155.5Z" fill="#9DFF00"/>
</svg>
