<svg width="436" height="107" viewBox="0 0 436 107" fill="none" xmlns="http://www.w3.org/2000/svg">
<path d="M0.0640001 105V1.31999H25.792C32.0213 1.31999 36.9707 2.47199 40.64 4.77599C44.3947 6.99466 47.1253 10.2373 48.832 14.504C50.5387 18.7707 51.392 23.9333 51.392 29.992C51.392 35.4533 50.4107 40.1893 48.448 44.2C46.5707 48.2107 43.7547 51.3253 40 53.544C36.2453 55.6773 31.552 56.744 25.92 56.744H14.528V105H0.0640001ZM14.528 46.376H21.184C25.3653 46.376 28.6507 45.9067 31.04 44.968C33.4293 44.0293 35.136 42.408 36.16 40.104C37.184 37.7147 37.696 34.3867 37.696 30.12C37.696 25.1707 37.312 21.3733 36.544 18.728C35.8613 16.0827 34.368 14.248 32.064 13.224C29.76 12.2 26.176 11.688 21.312 11.688H14.528V46.376ZM88.06 106.152C81.0627 106.152 75.4733 104.787 71.292 102.056C67.1107 99.3253 64.124 95.4427 62.332 90.408C60.54 85.288 59.644 79.3147 59.644 72.488V33.192C59.644 26.3653 60.54 20.52 62.332 15.656C64.2093 10.7067 67.196 6.952 71.292 4.392C75.4733 1.74666 81.0627 0.423996 88.06 0.423996C95.0573 0.423996 100.604 1.74666 104.7 4.392C108.796 7.03733 111.74 10.792 113.532 15.656C115.409 20.52 116.348 26.3653 116.348 33.192V72.616C116.348 79.3573 115.409 85.2453 113.532 90.28C111.74 95.3147 108.796 99.24 104.7 102.056C100.604 104.787 95.0573 106.152 88.06 106.152ZM88.06 94.76C91.9 94.76 94.8013 93.992 96.764 92.456C98.7267 90.8347 100.049 88.616 100.732 85.8C101.415 82.8987 101.756 79.528 101.756 75.688V30.248C101.756 26.408 101.415 23.1227 100.732 20.392C100.049 17.576 98.7267 15.4427 96.764 13.992C94.8013 12.456 91.9 11.688 88.06 11.688C84.22 11.688 81.276 12.456 79.228 13.992C77.2653 15.4427 75.9427 17.576 75.26 20.392C74.5773 23.1227 74.236 26.408 74.236 30.248V75.688C74.236 79.528 74.5773 82.8987 75.26 85.8C75.9427 88.616 77.2653 90.8347 79.228 92.456C81.276 93.992 84.22 94.76 88.06 94.76ZM130.564 105V1.31999H151.428C158.34 1.31999 164.057 2.25866 168.58 4.13599C173.103 5.928 176.431 8.872 178.564 12.968C180.783 16.9787 181.892 22.2693 181.892 28.84C181.892 32.8507 181.465 36.52 180.612 39.848C179.759 43.0907 178.393 45.864 176.516 48.168C174.639 50.3867 172.164 52.008 169.092 53.032L183.812 105H169.86L156.292 56.36H145.028V105H130.564ZM145.028 45.992H150.532C154.628 45.992 157.956 45.48 160.516 44.456C163.076 43.432 164.953 41.6827 166.148 39.208C167.343 36.7333 167.94 33.2773 167.94 28.84C167.94 22.7813 166.831 18.4293 164.612 15.784C162.393 13.0533 157.999 11.688 151.428 11.688H145.028V45.992ZM221.387 106.152C215.414 106.152 210.422 104.872 206.411 102.312C202.486 99.752 199.499 96.2107 197.451 91.688C195.403 87.1653 194.208 81.9173 193.867 75.944L206.667 72.488C206.923 76.1573 207.478 79.6987 208.331 83.112C209.27 86.5253 210.763 89.3413 212.811 91.56C214.859 93.6933 217.718 94.76 221.387 94.76C225.142 94.76 227.958 93.736 229.835 91.688C231.798 89.5547 232.779 86.5253 232.779 82.6C232.779 77.9067 231.712 74.152 229.579 71.336C227.446 68.4347 224.758 65.5333 221.515 62.632L204.107 47.272C200.694 44.2853 198.176 41.0427 196.555 37.544C194.934 33.96 194.123 29.5653 194.123 24.36C194.123 16.7653 196.299 10.8773 200.651 6.696C205.003 2.51466 210.934 0.423996 218.443 0.423996C222.539 0.423996 226.123 0.978663 229.195 2.088C232.352 3.11199 234.955 4.73333 237.003 6.952C239.136 9.17066 240.8 11.9867 241.995 15.4C243.275 18.728 244.128 22.6533 244.555 27.176L232.267 30.504C232.011 27.0907 231.499 23.976 230.731 21.16C229.963 18.2587 228.598 15.9547 226.635 14.248C224.758 12.456 222.027 11.56 218.443 11.56C214.859 11.56 212.043 12.5413 209.995 14.504C208.032 16.3813 207.051 19.1973 207.051 22.952C207.051 26.1093 207.563 28.712 208.587 30.76C209.696 32.808 211.446 34.8987 213.835 37.032L231.371 52.392C235.296 55.8053 238.752 59.9013 241.739 64.68C244.726 69.3733 246.219 74.9627 246.219 81.448C246.219 86.568 245.152 91.0053 243.019 94.76C240.886 98.4293 237.942 101.245 234.187 103.208C230.518 105.171 226.251 106.152 221.387 106.152ZM283.423 106.152C276.084 106.152 270.367 104.616 266.271 101.544C262.26 98.472 259.444 94.3333 257.823 89.128C256.287 83.9227 255.519 78.12 255.519 71.72V35.112C255.519 28.1147 256.287 22.0133 257.823 16.808C259.444 11.6027 262.26 7.59199 266.271 4.77599C270.367 1.87466 276.084 0.423996 283.423 0.423996C289.908 0.423996 295.028 1.61866 298.783 4.008C302.623 6.39733 305.354 9.81066 306.975 14.248C308.682 18.6853 309.535 24.0187 309.535 30.248V38.44H295.839V31.144C295.839 27.304 295.626 23.9333 295.199 21.032C294.858 18.0453 293.834 15.7413 292.127 14.12C290.42 12.4987 287.562 11.688 283.551 11.688C279.455 11.688 276.468 12.584 274.591 14.376C272.714 16.0827 271.476 18.5573 270.879 21.8C270.367 24.9573 270.111 28.6693 270.111 32.936V74.024C270.111 79.2293 270.538 83.368 271.391 86.44C272.244 89.4267 273.652 91.56 275.615 92.84C277.578 94.12 280.223 94.76 283.551 94.76C287.476 94.76 290.292 93.9067 291.999 92.2C293.706 90.408 294.772 87.976 295.199 84.904C295.626 81.832 295.839 78.248 295.839 74.152V66.472H309.535V74.152C309.535 80.4667 308.767 86.056 307.231 90.92C305.695 95.6987 303.05 99.4533 299.295 102.184C295.54 104.829 290.25 106.152 283.423 106.152ZM323.314 105V1.31999H337.778V46.12H364.402V1.31999H378.866V105H364.402V56.488H337.778V105H323.314ZM395.064 105V1.31999H435.256V12.072H409.528V46.376H430.392V56.616H409.528V94.632H435.512V105H395.064Z" fill="black"/>
</svg>
